<svg version="1.1" id="Layer_1" xmlns="http://www.w3.org/2000/svg" xmlns:xlink="http://www.w3.org/1999/xlink" viewBox="0 0 512 512" xml:space="preserve" fill="#000000"><g id="SVGRepo_bgCarrier" stroke-width="0"></g><g id="SVGRepo_tracerCarrier" stroke-linecap="round" stroke-linejoin="round"></g><g id="SVGRepo_iconCarrier"> <path style="fill:#FFEA8A;" d="M437.677,181.677C437.677,81.34,356.337,0,256,0S74.323,81.34,74.323,181.677 c0,70.602,40.271,131.795,99.097,161.866V512h165.161V343.544C397.406,313.473,437.677,252.279,437.677,181.677z"></path> <path style="fill:#FFDB2D;" d="M256,0v512h82.581V343.544c58.826-30.071,99.097-91.265,99.097-161.866 C437.677,81.34,356.337,0,256,0z"></path> <polygon style="fill:#F2F2F4;" points="339.582,166.162 304.547,131.128 256,179.674 207.452,131.128 172.418,166.162 231.226,224.971 231.226,330.323 280.774,330.323 280.774,224.971 "></polygon> <rect x="173.419" y="396.387" style="fill:#88888F;" width="165.161" height="115.613"></rect> <rect x="256" y="396.387" style="fill:#56545A;" width="82.581" height="115.613"></rect> </g></svg>