<svg fill="#000000" height="20px" width="22px" version="1.1" id="Layer_1" xmlns="http://www.w3.org/2000/svg" xmlns:xlink="http://www.w3.org/1999/xlink" viewBox="0 0 511.999 511.999" xml:space="preserve"><g id="SVGRepo_bgCarrier" stroke-width="0"></g><g id="SVGRepo_tracerCarrier" stroke-linecap="round" stroke-linejoin="round"></g><g id="SVGRepo_iconCarrier"> <g> <g> <path d="M352.418,90.256c-4.25-2.048-9.353-0.265-11.392,3.968c-2.048,4.25-0.273,9.352,3.968,11.401 C415.342,139.621,460.8,212.052,460.8,290.132c0,112.922-91.878,204.8-204.8,204.8s-204.8-91.878-204.8-204.8 c0-76.245,43.409-146.987,110.933-181.931v70.997c0,3.226,1.818,6.178,4.702,7.629c1.212,0.606,2.526,0.905,3.831,0.905 c1.801,0,3.584-0.563,5.086-1.681l128-95.078c2.295-1.707,3.584-4.446,3.43-7.296c-0.154-2.85-1.724-5.444-4.181-6.903 l-128-75.588c-2.637-1.562-5.905-1.579-8.567-0.06c-2.662,1.51-4.301,4.343-4.301,7.407v81.033 c-0.87,0.137-1.749,0.307-2.603,0.717C83.353,127.112,34.133,205.559,34.133,290.132c0,122.342,99.533,221.867,221.867,221.867 s221.867-99.524,221.867-221.867C477.866,205.542,428.62,127.086,352.418,90.256z"></path> </g> </g> </g></svg>